<svg width="24" height="24" viewBox="0 0 24 24" fill="none" xmlns="http://www.w3.org/2000/svg">
<path fill-rule="evenodd" clip-rule="evenodd" d="M4 12C4 16.4183 7.58172 20 12 20C16.4183 20 20 16.4183 20 12C20 9.87827 19.1571 7.84344 17.6569 6.34315C16.1566 4.84285 14.1217 4 12 4C7.58172 4 4 7.58172 4 12ZM2 12C2 6.47715 6.47715 2 12 2C14.6522 2 17.1957 3.05357 19.0711 4.92893C20.9464 6.8043 22 9.34784 22 12C22 14.6522 20.9464 17.1957 19.0711 19.0711C17.1957 20.9464 14.6522 22 12 22C9.34784 22 6.8043 20.9464 4.92893 19.0711C3.05357 17.1957 2 14.6522 2 12ZM10 14.17L15.88 8.29C16.27 7.9 16.91 7.9 17.3 8.29C17.69 8.68 17.69 9.31 17.3 9.7L10.71 16.29C10.32 16.68 9.69 16.68 9.3 16.29L6.71 13.7C6.32 13.31 6.32 12.68 6.71 12.29C7.1 11.9 7.73 11.9 8.12 12.29L10 14.17Z" fill="#F0F8FF"/>
</svg>
