<svg width="32" height="32" viewBox="0 0 32 32" fill="none" xmlns="http://www.w3.org/2000/svg">
<circle cx="16" cy="16" r="16" fill="#2A2E35"/>
<g opacity="0.32">
<path fill-rule="evenodd" clip-rule="evenodd" d="M26.02 9H24V6.98C24 6.44 23.56 6 23.02 6H22.99C22.44 6 22 6.44 22 6.98V9H19.99C19.45 9 19.01 9.44 19 9.98V10.01C19 10.56 19.44 11 19.99 11H22V13.01C22 13.55 22.44 14 22.99 13.99H23.02C23.56 13.99 24 13.55 24 13.01V11H26.02C26.56 11 27 10.56 27 10.02V9.98C27 9.44 26.56 9 26.02 9ZM21 13.01V12H19.99C19.46 12 18.96 11.79 18.58 11.42C18.21 11.04 18 10.54 18 9.98C18 9.62 18.1 9.29 18.27 9H10C8.9 9 8 9.9 8 11V23C8 24.1 8.9 25 10 25H22C23.1 25 24 24.1 24 23V14.72C23.7 14.89 23.36 15 22.98 15C21.89 14.99 21 14.1 21 13.01ZM11 23H20.96C21.38 23 21.61 22.52 21.35 22.19L18.4 18.51C18.2 18.25 17.81 18.26 17.61 18.52L15 22L13.4 19.59C13.2 19.31 12.79 19.29 12.58 19.57L10.6 22.2C10.35 22.53 10.59 23 11 23Z" fill="#F0F8FF"/>
</g>
</svg>
